<svg width="146" height="149" viewBox="0 0 146 149" fill="none" xmlns="http://www.w3.org/2000/svg">
<g opacity="0.64">
<path d="M65.2596 143.586L62.0882 142.318C60.6435 141.719 60.1854 140.626 60.6787 139.287C61.2073 137.913 62.3349 137.42 63.7796 138.019L65.9996 138.899L67.1624 135.904L68.1138 136.292L65.2596 143.586ZM65.6825 139.71L63.7796 138.935C62.6873 138.477 62.0177 138.794 61.6654 139.639C61.313 140.485 61.6301 141.155 62.7225 141.613L64.6253 142.388L65.6825 139.71Z" fill="#FFFCF6"/>
<path d="M55.8166 139.358L52.6805 137.42C51.4119 136.645 51.0948 135.482 51.7291 134.425C52.2224 133.65 52.9976 133.156 53.9138 133.438C53.209 132.804 53.4204 132.17 53.7728 131.465C54.1252 130.76 54.6185 130.055 54.5128 129.386L55.4994 130.02C55.5699 130.443 55.0061 131.077 54.7242 131.782C54.4423 132.487 54.2309 133.121 55.0766 133.685L57.2613 135.024L59.0232 132.205L59.9041 132.733L55.8166 139.358ZM54.9709 134.636C54.1604 134.108 53.3147 133.896 52.7157 134.848C52.3281 135.517 52.3633 136.187 53.1738 136.715L55.3937 138.089L56.8032 135.764L54.9709 134.636Z" fill="#FFFCF6"/>
<path d="M46.9009 133.332L42.8838 129.737L43.4829 129.068L46.7248 131.957L48.3809 130.09L45.3505 127.412L45.9495 126.742L48.98 129.491L50.7771 127.482L47.5 124.557L48.099 123.888L52.1514 127.517L46.9009 133.332Z" fill="#FFFCF6"/>
<path d="M39.6071 126.39L38.7614 125.262L42.4614 119.307L35.7662 121.351L34.9205 120.223L41.1223 115.431L41.7214 116.241L36.5414 120.223L43.2014 118.215L43.7652 118.919L40.0652 124.804L45.2452 120.822L45.8442 121.633L39.6071 126.39Z" fill="#FFFCF6"/>
<path d="M32.4183 115.961L31.925 115.045L38.8317 111.309L39.325 112.226L32.4183 115.961Z" fill="#FFFCF6"/>
<path d="M32.2762 103.134C34.1086 102.429 35.5181 103.134 36.1524 104.966C36.8571 106.869 36.399 108.314 34.4257 109.018L29.7391 110.745L29.3867 109.758L34.0734 108.032C35.3771 107.574 35.8 106.516 35.3067 105.248C34.8486 104.015 33.8619 103.592 32.5934 104.085L27.9068 105.812L27.5544 104.825L32.2762 103.134Z" fill="#FFFCF6"/>
<path d="M26.2513 99.9261L26.0398 98.5166L32.1711 95.0633L25.2999 93.6186L25.0884 92.2091L32.8407 91.011L32.9816 91.9976L26.5684 92.9843L33.3692 94.429L33.4749 95.31L27.4141 98.6928L33.8273 97.7061L33.9682 98.6928L26.2513 99.9261Z" fill="#FFFCF6"/>
<path d="M25.1246 81.25L25.6531 77.6205C25.8646 76.1406 26.7808 75.3653 28.0141 75.5415C28.9302 75.6825 29.6702 76.211 29.7759 77.1624C30.0931 76.2815 30.7626 76.1758 31.5378 76.2463C32.3131 76.3167 33.1588 76.4577 33.7226 76.1053L33.5464 77.2682C33.1588 77.5148 32.3835 77.2329 31.5731 77.2682C30.7978 77.2682 30.1283 77.3739 29.9874 78.3605L29.635 80.8976L32.9473 81.391L32.8064 82.4481L25.1246 81.25ZM29.1417 78.5719C29.2826 77.5853 29.1417 76.7396 28.0141 76.5986C27.2741 76.4929 26.6398 76.8453 26.4989 77.7615L26.1112 80.3338L28.8245 80.7214L29.1417 78.5719Z" fill="#FFFCF6"/>
<path d="M27.9781 67.4013C28.7885 65.0404 31.0438 64.4766 33.0876 65.1813C35.0961 65.8509 36.5761 67.6832 35.7657 70.0441C34.9552 72.405 32.7 72.9688 30.6562 72.2641C28.6124 71.6298 27.1676 69.7622 27.9781 67.4013ZM34.8847 69.7975C35.4837 68.0003 34.1799 66.6966 32.7 66.2032C31.22 65.7099 29.3876 65.9213 28.7885 67.7185C28.1895 69.5156 29.4933 70.8194 30.9733 71.3127C32.4533 71.806 34.2857 71.5946 34.8847 69.7975Z" fill="#FFFCF6"/>
<path d="M32.8406 56.7611C34.074 54.6116 36.4349 54.5059 38.2673 55.563C40.0997 56.6201 41.192 58.6991 39.9235 60.8839C38.6549 63.0686 36.3292 63.139 34.4968 62.0819C32.6644 60.9543 31.572 58.8753 32.8406 56.7611ZM39.1835 60.4258C40.1349 58.7696 39.113 57.2544 37.7739 56.4792C36.3997 55.6687 34.6025 55.563 33.6159 57.1839C32.6644 58.8401 33.6863 60.3553 35.0254 61.1305C36.3997 61.941 38.1968 62.0467 39.1835 60.4258Z" fill="#FFFCF6"/>
<path d="M37.6691 49.7476L38.6205 48.6552L45.1394 51.2275L41.9328 44.9905L42.8842 43.8981L48.6984 49.1485L48.0289 49.8885L43.1661 45.519L46.3727 51.6856L45.7737 52.3551L39.29 49.818L44.1528 54.1875L43.4833 54.9275L37.6691 49.7476Z" fill="#FFFCF6"/>
<path d="M51.6943 39.6697C50.919 38.824 50.0381 38.9297 49.1924 39.564C48.5229 40.0926 47.9591 40.8678 48.5933 41.7135C49.1571 42.4887 50.2847 41.8544 51.4476 41.3259C52.6104 40.7973 53.879 40.3745 54.7952 41.643C55.7818 42.982 54.9009 44.4973 53.7733 45.343C52.3638 46.4001 50.6724 46.6115 49.5095 45.0963L50.32 44.4973C51.0952 45.5544 52.3638 45.343 53.2799 44.6382C54.0552 44.0744 54.6895 43.2287 53.9847 42.3125C53.3504 41.4668 52.2228 42.0306 51.06 42.5592C49.8971 43.0877 48.6638 43.5458 47.8181 42.4182C46.8315 41.1497 47.5714 39.7049 48.699 38.8592C49.9676 37.8726 51.4123 37.7669 52.4695 39.1059L51.6943 39.6697Z" fill="#FFFCF6"/>
<path d="M58.3167 40.6566L59.3743 40.0926L59.9384 41.1501L58.8808 41.7142L58.3167 40.6566Z" fill="#FFFCF6"/>
<path d="M65.8944 29.9794L68.643 29.2042C69.3125 29.028 70.1935 28.7814 70.6868 28.9223C71.2506 29.0633 71.8144 29.4861 72.0258 30.2613C72.2725 31.0718 71.9906 31.7766 71.3563 32.2699C72.343 32.1994 73.0477 32.7632 73.2944 33.7146C73.6115 34.807 73.083 36.1108 71.603 36.5337L67.9735 37.5556L65.8944 29.9794ZM68.7487 36.3575L71.2858 35.6527C72.1668 35.4061 72.5544 34.7365 72.343 33.8908C72.0611 32.9042 71.1801 32.8689 70.3344 33.0804L68.044 33.7499L68.7487 36.3575ZM67.7973 32.9394L69.8058 32.4108C70.9687 32.0937 71.2858 31.5651 71.0744 30.7899C70.7925 29.7328 70.0173 29.8033 69.1363 30.0499L67.1278 30.5785L67.7973 32.9394Z" fill="#FFFCF6"/>
<path d="M78.5092 27.3024L79.672 27.1967L83.4424 34.7022L82.2796 34.808L81.2224 32.5528L77.9454 32.8699L77.2758 35.3013L76.1835 35.407L78.5092 27.3024ZM78.1568 31.9537L80.7996 31.7071L79.1434 28.2185L78.1568 31.9537Z" fill="#FFFCF6"/>
<path d="M86.7199 26.9121L87.8122 27.0179L91.3713 33.6777L91.8998 27.3702L92.8865 27.4407L92.2522 35.2634L91.1246 35.193L87.5656 28.6035L87.037 34.8406L86.0504 34.7701L86.7199 26.9121Z" fill="#FFFCF6"/>
<path d="M97.855 28.3231L98.8417 28.605L97.8198 32.3754L102.683 29.6269L103.951 29.9793L99.9341 32.164L102.013 37.5553L100.745 37.203L99.0531 32.6221L97.4674 33.4326L96.7274 36.0754L95.7408 35.7935L97.855 28.3231Z" fill="#FFFCF6"/>
<path d="M113.219 34.0309L114.1 34.5595L112.338 37.4489L115.862 39.5632L117.624 36.6737L118.505 37.2023L114.417 43.8975L113.536 43.3689L115.404 40.3032L111.88 38.1889L110.012 41.2546L109.131 40.7261L113.219 34.0309Z" fill="#FFFCF6"/>
<path d="M125.199 42.3472C127.031 44.0386 126.644 46.329 125.199 47.9147C123.754 49.5004 121.534 50.0994 119.667 48.4433C117.799 46.7871 118.222 44.4615 119.667 42.8758C121.111 41.2901 123.331 40.6911 125.199 42.3472ZM120.266 47.7738C121.675 49.0423 123.402 48.3728 124.424 47.21C125.446 46.0471 126.01 44.2853 124.6 43.0167C123.191 41.7482 121.464 42.4177 120.442 43.5805C119.42 44.7434 118.856 46.5052 120.266 47.7738Z" fill="#FFFCF6"/>
<path d="M131.224 50.3463L129.639 48.2673L130.308 47.7387L134.149 52.7072L133.48 53.2358L131.894 51.1567L126.397 55.3853L125.763 54.5395L131.224 50.3463Z" fill="#FFFCF6"/>
<path d="M136.3 56.1248L138.872 60.8818L138.097 61.3047L136.018 57.4638L133.833 58.6619L135.771 62.2208L134.996 62.6437L133.058 59.0847L130.697 60.3885L132.811 64.2646L132.036 64.6874L129.429 59.8952L136.3 56.1248Z" fill="#FFFCF6"/>
<path d="M140.633 64.9703L140.985 65.9569L134.431 68.2826L135.805 72.194L134.96 72.4759L133.233 67.5779L140.633 64.9703Z" fill="#FFFCF6"/>
</g>
<path d="M70.7289 84.3581C69.6254 84.2051 68.9028 83.1172 69.1891 82.0401C69.4563 81.0347 70.5441 80.4953 71.5068 80.8908L84.6447 86.2874L70.7289 84.3581Z" fill="#FCD043"/>
<path d="M86.476 72.4102C86.6243 71.2829 87.7282 70.5464 88.8254 70.8428C89.8494 71.1194 90.4007 72.2341 89.9988 73.2151L84.6537 86.2598L86.476 72.4102Z" fill="#FCD043"/>
<path d="M76.2034 75.0826C75.5196 74.1844 75.7708 72.8957 76.7382 72.3384C77.6411 71.8182 78.802 72.2171 79.2103 73.1879L84.704 86.2496L76.2034 75.0826Z" fill="#FCD043"/>
<path d="M95.823 77.7421C96.7154 77.0615 98.0084 77.3286 98.5765 78.3109C99.1068 79.2277 98.7196 80.3954 97.7519 80.7977L84.7038 86.2218L95.823 77.7421Z" fill="#FCD043"/>
<path d="M98.5414 88.1805C99.6448 88.3335 100.367 89.4213 100.081 90.4985C99.8139 91.5039 98.7262 92.0432 97.7634 91.6478L84.6256 86.2512L98.5414 88.1805Z" fill="#FCD043"/>
<path d="M82.7942 100.129C82.6459 101.256 81.542 101.993 80.4448 101.696C79.4208 101.42 78.8695 100.305 79.2714 99.324L84.6165 86.2792L82.7942 100.129Z" fill="#FCD043"/>
<path d="M93.1808 97.3959C93.8645 98.2941 93.6134 99.5828 92.646 100.14C91.743 100.66 90.5821 100.261 90.1738 99.2906L84.6801 86.2289L93.1808 97.3959Z" fill="#FCD043"/>
<path d="M73.563 94.7311C72.6705 95.4117 71.3776 95.1446 70.8094 94.1623C70.2791 93.2455 70.6664 92.0778 71.6341 91.6755L84.6821 86.2513L73.563 94.7311Z" fill="#FCD043"/>
</svg>
