<svg width="200" height="200" viewBox="0 0 200 200" fill="none" xmlns="http://www.w3.org/2000/svg">
<path d="M100 0L158.779 19.0983L195.106 69.0983V130.902L158.779 180.902L100 200L41.2215 180.902L4.89435 130.902V69.0983L41.2215 19.0983L100 0Z" fill="#FCD043"/>
<path d="M54.34 97.46H58.42C59.98 97.46 61.36 97.76 61.36 99.58C61.36 102.18 58.84 102.4 57.9 102.4H53.3L54.34 97.46ZM51.14 104H58.2C61.02 104 63.26 102.32 63.26 99.58C63.26 98.06 62.42 97 61.12 96.62V96.58C62.8 96.32 63.84 94.72 63.84 93.14C63.84 90.98 62.66 89.72 59.86 89.72H54.12L51.14 104ZM55.62 91.32H59.14C60.32 91.32 61.94 91.46 61.94 93.14C61.94 94.92 60.88 95.86 58.9 95.86H54.66L55.62 91.32ZM66.7314 99.9C66.7314 97.76 68.0914 94.92 70.6914 94.92C72.5514 94.92 73.4114 96.22 73.4114 97.84C73.4114 99.88 72.0514 102.74 69.5714 102.74C67.7114 102.74 66.7314 101.6 66.7314 99.9ZM65.0314 99.92C65.0314 102.42 66.6714 104.24 69.3914 104.24C73.0114 104.24 75.1114 101.08 75.1114 97.7C75.1114 94.94 73.5714 93.42 70.8114 93.42C67.1914 93.42 65.0314 96.54 65.0314 99.92ZM78.2158 99.9C78.2158 97.76 79.5758 94.92 82.1758 94.92C84.0358 94.92 84.8958 96.22 84.8958 97.84C84.8958 99.88 83.5358 102.74 81.0558 102.74C79.1958 102.74 78.2158 101.6 78.2158 99.9ZM76.5158 99.92C76.5158 102.42 78.1558 104.24 80.8758 104.24C84.4958 104.24 86.5958 101.08 86.5958 97.7C86.5958 94.94 85.0558 93.42 82.2958 93.42C78.6758 93.42 76.5158 96.54 76.5158 99.92ZM87.5602 104H89.2602L90.0402 100.32L92.0802 98.5L94.1002 104H96.0002L93.4402 97.48L97.9402 93.66H95.7202L90.5202 98.16L90.4802 98.12L92.2602 89.72H90.5802L87.5602 104ZM102.755 104H104.455L105.435 99.42C105.595 98.64 105.835 97.66 106.295 97C106.835 96.18 107.555 95.56 108.495 95.32C108.895 95.22 109.095 95.22 109.515 95.22C109.675 95.22 109.855 95.22 110.015 95.24L110.415 93.42C110.215 93.38 110.015 93.42 109.815 93.42C108.075 93.42 106.855 94.46 106.055 95.88H106.015L106.515 93.66H104.915L102.755 104ZM111.556 99.9C111.556 97.76 112.916 94.92 115.516 94.92C117.376 94.92 118.236 96.22 118.236 97.84C118.236 99.88 116.876 102.74 114.396 102.74C112.536 102.74 111.556 101.6 111.556 99.9ZM109.856 99.92C109.856 102.42 111.496 104.24 114.216 104.24C117.836 104.24 119.936 101.08 119.936 97.7C119.936 94.94 118.396 93.42 115.636 93.42C112.016 93.42 109.856 96.54 109.856 99.92ZM123.04 99.9C123.04 97.76 124.4 94.92 127 94.92C128.86 94.92 129.72 96.22 129.72 97.84C129.72 99.88 128.36 102.74 125.88 102.74C124.02 102.74 123.04 101.6 123.04 99.9ZM121.34 99.92C121.34 102.42 122.98 104.24 125.7 104.24C129.32 104.24 131.42 101.08 131.42 97.7C131.42 94.94 129.88 93.42 127.12 93.42C123.5 93.42 121.34 96.54 121.34 99.92ZM132.384 104H134.084L135.244 98.58C135.464 97.56 135.624 96.94 136.344 96.24C136.944 95.56 137.944 94.92 138.884 94.92C139.804 94.92 140.324 95.42 140.324 96.28C140.324 96.52 140.184 97.3 140.004 98.1L138.764 104H140.464L141.604 98.66C141.784 97.78 142.004 96.94 142.564 96.34C143.144 95.6 144.204 94.92 145.164 94.92C146.064 94.92 146.744 95.52 146.744 96.32C146.744 96.62 146.664 97.12 146.584 97.44L145.144 104H146.844L148.144 97.8C148.284 97.22 148.444 96.34 148.444 95.74C148.444 94.06 147.024 93.42 145.564 93.42C144.184 93.42 142.824 94.18 142.024 95.28C141.724 93.94 140.724 93.42 139.424 93.42C138.004 93.42 136.704 94.16 135.824 95.24L135.784 95.2L136.164 93.66H134.584L132.384 104Z" fill="#1B3B36"/>
<path d="M54.34 97.46H58.42C59.98 97.46 61.36 97.76 61.36 99.58C61.36 102.18 58.84 102.4 57.9 102.4H53.3L54.34 97.46ZM51.14 104H58.2C61.02 104 63.26 102.32 63.26 99.58C63.26 98.06 62.42 97 61.12 96.62V96.58C62.8 96.32 63.84 94.72 63.84 93.14C63.84 90.98 62.66 89.72 59.86 89.72H54.12L51.14 104ZM55.62 91.32H59.14C60.32 91.32 61.94 91.46 61.94 93.14C61.94 94.92 60.88 95.86 58.9 95.86H54.66L55.62 91.32ZM66.7314 99.9C66.7314 97.76 68.0914 94.92 70.6914 94.92C72.5514 94.92 73.4114 96.22 73.4114 97.84C73.4114 99.88 72.0514 102.74 69.5714 102.74C67.7114 102.74 66.7314 101.6 66.7314 99.9ZM65.0314 99.92C65.0314 102.42 66.6714 104.24 69.3914 104.24C73.0114 104.24 75.1114 101.08 75.1114 97.7C75.1114 94.94 73.5714 93.42 70.8114 93.42C67.1914 93.42 65.0314 96.54 65.0314 99.92ZM78.2158 99.9C78.2158 97.76 79.5758 94.92 82.1758 94.92C84.0358 94.92 84.8958 96.22 84.8958 97.84C84.8958 99.88 83.5358 102.74 81.0558 102.74C79.1958 102.74 78.2158 101.6 78.2158 99.9ZM76.5158 99.92C76.5158 102.42 78.1558 104.24 80.8758 104.24C84.4958 104.24 86.5958 101.08 86.5958 97.7C86.5958 94.94 85.0558 93.42 82.2958 93.42C78.6758 93.42 76.5158 96.54 76.5158 99.92ZM87.5602 104H89.2602L90.0402 100.32L92.0802 98.5L94.1002 104H96.0002L93.4402 97.48L97.9402 93.66H95.7202L90.5202 98.16L90.4802 98.12L92.2602 89.72H90.5802L87.5602 104ZM102.755 104H104.455L105.435 99.42C105.595 98.64 105.835 97.66 106.295 97C106.835 96.18 107.555 95.56 108.495 95.32C108.895 95.22 109.095 95.22 109.515 95.22C109.675 95.22 109.855 95.22 110.015 95.24L110.415 93.42C110.215 93.38 110.015 93.42 109.815 93.42C108.075 93.42 106.855 94.46 106.055 95.88H106.015L106.515 93.66H104.915L102.755 104ZM111.556 99.9C111.556 97.76 112.916 94.92 115.516 94.92C117.376 94.92 118.236 96.22 118.236 97.84C118.236 99.88 116.876 102.74 114.396 102.74C112.536 102.74 111.556 101.6 111.556 99.9ZM109.856 99.92C109.856 102.42 111.496 104.24 114.216 104.24C117.836 104.24 119.936 101.08 119.936 97.7C119.936 94.94 118.396 93.42 115.636 93.42C112.016 93.42 109.856 96.54 109.856 99.92ZM123.04 99.9C123.04 97.76 124.4 94.92 127 94.92C128.86 94.92 129.72 96.22 129.72 97.84C129.72 99.88 128.36 102.74 125.88 102.74C124.02 102.74 123.04 101.6 123.04 99.9ZM121.34 99.92C121.34 102.42 122.98 104.24 125.7 104.24C129.32 104.24 131.42 101.08 131.42 97.7C131.42 94.94 129.88 93.42 127.12 93.42C123.5 93.42 121.34 96.54 121.34 99.92ZM132.384 104H134.084L135.244 98.58C135.464 97.56 135.624 96.94 136.344 96.24C136.944 95.56 137.944 94.92 138.884 94.92C139.804 94.92 140.324 95.42 140.324 96.28C140.324 96.52 140.184 97.3 140.004 98.1L138.764 104H140.464L141.604 98.66C141.784 97.78 142.004 96.94 142.564 96.34C143.144 95.6 144.204 94.92 145.164 94.92C146.064 94.92 146.744 95.52 146.744 96.32C146.744 96.62 146.664 97.12 146.584 97.44L145.144 104H146.844L148.144 97.8C148.284 97.22 148.444 96.34 148.444 95.74C148.444 94.06 147.024 93.42 145.564 93.42C144.184 93.42 142.824 94.18 142.024 95.28C141.724 93.94 140.724 93.42 139.424 93.42C138.004 93.42 136.704 94.16 135.824 95.24L135.784 95.2L136.164 93.66H134.584L132.384 104Z" fill="black" fill-opacity="0.2"/>
</svg>
