<svg width="150" height="109" viewBox="0 0 150 109" fill="none" xmlns="http://www.w3.org/2000/svg">
<g opacity="0.64">
<path d="M7.53567 108.828L5.85377 104.904C5.10627 103.097 5.6669 101.727 7.2865 100.979C8.96839 100.232 10.4011 100.792 11.1486 102.599L12.3322 105.34L16.0074 103.72L16.5058 104.904L7.53567 108.828ZM11.3355 105.776L10.3388 103.409C9.77819 102.038 8.9061 101.727 7.84713 102.163C6.78816 102.599 6.4767 103.471 7.03733 104.841L8.03401 107.209L11.3355 105.776Z" fill="#FFFCF6"/>
<path d="M2.9278 96.7437L1.86883 92.2586C1.43278 90.4521 2.18029 89.144 3.67531 88.7702C4.79657 88.5211 5.91783 88.7702 6.47846 89.8292C6.41617 88.6456 7.16368 88.2719 8.09806 87.9604C9.03245 87.649 10.0914 87.4621 10.5898 86.7769L10.9012 88.2096C10.5898 88.6456 9.53079 88.7079 8.65869 89.0817C7.7866 89.4554 7.03909 89.8292 7.28826 91.075L8.03577 94.1897L12.0848 93.2553L12.3962 94.5011L2.9278 96.7437ZM6.35388 91.8226C6.10471 90.639 5.54408 89.7046 4.17365 90.0161C3.23926 90.2652 2.67863 90.8882 2.9278 92.0717L3.67531 95.2486L6.9768 94.4388L6.35388 91.8226Z" fill="#FFFCF6"/>
<path d="M0.373762 83.5374L7.33532e-06 76.8098L1.12127 76.7475L1.43273 82.1669L4.54735 81.98L4.23589 76.9344L5.35715 76.8721L5.60632 81.98L8.97011 81.7932L8.65865 76.3114L9.77991 76.2491L10.1537 83.039L0.373762 83.5374Z" fill="#FFFCF6"/>
<path d="M0.0623779 70.9541L0.311547 69.2099L8.8456 67.2165L1.12135 63.1052L1.37052 61.361L11.0881 62.6069L10.9012 63.8527L2.80324 62.7938L10.4652 66.9051L10.3406 68.0263L1.86886 69.9574L9.96686 71.0164L9.77999 72.2622L0.0623779 70.9541Z" fill="#FFFCF6"/>
<path d="M2.9297 55.3824L3.30345 54.1365L12.7096 56.9397L12.3358 58.1855L2.9297 55.3824Z" fill="#FFFCF6"/>
<path d="M14.142 43.9202C16.3845 44.9168 17.0074 46.7856 15.9485 48.9659C14.8895 51.2707 13.2076 52.1428 10.8405 51.0215L5.17188 48.4052L5.73251 47.2217L11.4011 49.8379C12.9584 50.5855 14.2666 50.0248 14.9518 48.4675C15.637 46.9725 15.1387 45.7266 13.5814 45.0414L7.91275 42.4251L8.47338 41.2416L14.142 43.9202Z" fill="#FFFCF6"/>
<path d="M11.6487 35.7588L12.7077 34.3261L21.1795 36.6932L16.3829 29.3427L17.4419 27.91L25.353 33.7032L24.6055 34.6999L18.0648 29.9034L22.7991 37.1916L22.1138 38.0637L13.7667 35.6966L20.3074 40.4931L19.5598 41.4897L11.6487 35.7588Z" fill="#FFFCF6"/>
<path d="M27.1595 18.2552L30.8347 15.5143C32.3297 14.393 33.8248 14.5176 34.7591 15.7635C35.4444 16.6979 35.6312 17.8191 34.8837 18.7535C35.9427 18.2552 36.6279 18.7535 37.2508 19.501C37.8738 20.2485 38.4967 21.1206 39.3065 21.3075L38.1229 22.1796C37.5623 22.055 37.1262 21.1206 36.3787 20.4354C35.6935 19.7502 35.0083 19.2518 34.0116 19.9994L31.4576 21.9304L33.9493 25.2942L32.8904 26.104L27.1595 18.2552ZM33.0772 19.4387C34.0739 18.6912 34.6968 17.8191 33.8248 16.6979C33.2641 15.9504 32.392 15.7012 31.4576 16.3864L28.8414 18.3175L30.897 21.0583L33.0772 19.4387Z" fill="#FFFCF6"/>
<path d="M41.9227 8.53749C44.7259 7.16705 47.2176 8.66208 48.4011 11.0915C49.5847 13.4586 49.2732 16.3863 46.47 17.7568C43.6669 19.1272 41.1752 17.6322 39.9916 15.2028C38.7458 12.8357 39.1196 9.90792 41.9227 8.53749ZM45.9094 16.7601C48.0274 15.7011 48.0274 13.3963 47.1553 11.6521C46.2832 9.90792 44.4767 8.4752 42.3588 9.53417C40.2408 10.5931 40.2408 12.898 41.1129 14.6421C41.985 16.3863 43.7915 17.8191 45.9094 16.7601Z" fill="#FFFCF6"/>
<path d="M55.6272 3.42948C58.6172 2.61968 60.7974 4.61304 61.4827 7.16703C62.1679 9.72101 61.2958 12.5242 58.2435 13.334C55.1911 14.1438 53.0732 12.1504 52.388 9.59642C51.7651 6.98014 52.6372 4.17699 55.6272 3.42948ZM57.9943 12.275C60.2991 11.6521 60.7352 9.40955 60.2368 7.54077C59.7385 5.60971 58.2435 3.92782 55.9386 4.48845C53.6338 5.11138 53.1978 7.3539 53.6961 9.22268C54.1945 11.1537 55.6895 12.8356 57.9943 12.275Z" fill="#FFFCF6"/>
<path d="M66.0938 1.49919L67.9002 1.37461L71.3886 9.41031L74.0672 1.06314L75.8737 0.93856L76.372 10.7185L75.1262 10.7808L74.6901 2.62045L72.0738 10.9053L70.9526 10.9676L67.4642 2.99421L67.9002 11.1545L66.6544 11.2168L66.0938 1.49919Z" fill="#FFFCF6"/>
<path d="M87.3976 4.98715C87.4599 3.55443 86.5878 2.86921 85.2797 2.68234C84.2207 2.55775 83.0372 2.74463 82.8503 4.05277C82.6634 5.23632 84.2207 5.67237 85.7157 6.233C87.2108 6.79363 88.7058 7.54113 88.3943 9.4722C88.0828 11.5278 85.9649 12.0885 84.2207 11.8393C82.0405 11.5278 80.3586 10.2197 80.6701 7.85259L81.9159 8.03947C81.6667 9.65907 82.9749 10.5935 84.4076 10.7803C85.5912 10.9672 86.8993 10.7803 87.0862 9.34762C87.2731 8.03948 85.778 7.54114 84.283 6.9805C82.788 6.41987 81.293 5.73466 81.5422 3.99047C81.7913 1.99711 83.7224 1.37419 85.4666 1.62336C87.4599 1.87253 88.8304 3.05609 88.5812 5.17403L87.3976 4.98715Z" fill="#FFFCF6"/>
<path d="M92.3814 11.7152L93.8141 12.1513L93.378 13.584L91.9453 13.1479L92.3814 11.7152Z" fill="#FFFCF6"/>
<path d="M108.515 8.97302L111.63 10.7172C112.377 11.1533 113.374 11.7139 113.685 12.2745C114.059 12.8974 114.184 13.7695 113.685 14.6416C113.187 15.576 112.315 15.9498 111.318 15.8252C112.253 16.635 112.377 17.7563 111.754 18.8152C111.069 20.0611 109.449 20.7463 107.768 19.8119L103.656 17.5071L108.515 8.97302ZM105.4 17.1333L108.266 18.7529C109.263 19.3136 110.197 19.0644 110.758 18.13C111.381 17.0087 110.633 16.1989 109.699 15.6383L107.082 14.2056L105.4 17.1333ZM107.581 13.2712L109.823 14.5793C111.131 15.3268 111.879 15.14 112.377 14.2679C113.062 13.0843 112.315 12.4614 111.318 11.9008L109.076 10.5926L107.581 13.2712Z" fill="#FFFCF6"/>
<path d="M122.031 17.7568L123.152 18.6912L119.851 28.658L118.729 27.7236L119.788 24.7958L116.611 22.1796L113.871 23.7369L112.812 22.8648L122.031 17.7568ZM117.608 21.5566L120.162 23.6746L121.782 19.1272L117.608 21.5566Z" fill="#FFFCF6"/>
<path d="M129.63 24.6713L130.502 25.7303L127.762 34.7626L133.804 29.6547L134.614 30.5891L127.139 36.9429L126.204 35.8839L128.883 26.9138L122.903 31.9595L122.093 31.0251L129.63 24.6713Z" fill="#FFFCF6"/>
<path d="M138.226 35.7602L138.849 36.8814L134.613 39.3108L141.34 41.1796L142.15 42.6123L136.668 40.9927L133.741 47.5957L132.931 46.163L135.485 40.619L133.367 39.9337L130.377 41.6156L129.754 40.4944L138.226 35.7602Z" fill="#FFFCF6"/>
<path d="M146.761 54.3844L147.072 55.6303L142.961 56.6269L144.207 61.6103L148.318 60.6136L148.63 61.8595L139.099 64.1643L138.787 62.9185L143.148 61.8595L141.902 56.8761L137.542 57.9351L137.23 56.6892L146.761 54.3844Z" fill="#FFFCF6"/>
<path d="M150 72.3246C150.125 75.4392 147.757 77.1211 145.079 77.2457C142.4 77.3703 139.909 75.9376 139.722 72.8229C139.535 69.7083 141.964 68.0264 144.643 67.9019C147.321 67.7773 149.813 69.21 150 72.3246ZM140.843 72.7607C140.968 75.1278 143.085 76.0622 145.017 75.9376C146.948 75.813 149.003 74.754 148.879 72.3869C148.754 70.0198 146.636 69.0854 144.705 69.21C142.774 69.3346 140.718 70.3935 140.843 72.7607Z" fill="#FFFCF6"/>
<path d="M148.256 84.7209L148.692 81.4817L149.751 81.6063L148.754 89.3928L147.695 89.2682L148.131 86.029L139.535 84.9078L139.722 83.5996L148.256 84.7209Z" fill="#FFFCF6"/>
<path d="M147.634 94.3146L145.703 100.793L144.644 100.482L146.201 95.2489L143.211 94.3769L141.779 99.2357L140.72 98.9242L142.152 94.0654L138.913 93.131L137.356 98.4259L136.297 98.1144L138.228 91.5737L147.634 94.3146Z" fill="#FFFCF6"/>
<path d="M143.645 105.962L143.084 107.146L135.235 103.408L132.993 108.08L131.996 107.582L134.799 101.726L143.645 105.962Z" fill="#FFFCF6"/>
</g>
<path d="M73.0981 53.631C72.9191 52.2355 74.0063 51 75.4133 51C76.7264 51 77.7411 52.1531 77.5741 53.4556L75.3248 71L73.0981 53.631Z" fill="#FCD043"/>
<path d="M92.6923 68.7731C94.0878 68.5942 95.3233 69.6814 95.3233 71.0883C95.3233 72.4015 94.1702 73.4162 92.8677 73.2492L75.3232 70.9999L92.6923 68.7731Z" fill="#FCD043"/>
<path d="M86.0842 57.2024C86.9445 56.0891 88.5868 55.9843 89.5817 56.9791C90.5102 57.9077 90.4124 59.4405 89.3733 60.2435L75.377 71.0587L86.0842 57.2024Z" fill="#FCD043"/>
<path d="M89.24 81.7687C90.3533 82.629 90.4581 84.2714 89.4633 85.2662C88.5347 86.1948 87.0019 86.0969 86.1989 85.0578L75.3836 71.0616L89.24 81.7687Z" fill="#FCD043"/>
<path d="M77.5484 88.369C77.7274 89.7645 76.6402 91 75.2332 91C73.9201 91 72.9054 89.8469 73.0724 88.5444L75.3216 71L77.5484 88.369Z" fill="#FCD043"/>
<path d="M57.9542 73.2269C56.5587 73.4058 55.3232 72.3186 55.3232 70.9117C55.3232 69.5985 56.4763 68.5838 57.7788 68.7508L75.3232 71.0001L57.9542 73.2269Z" fill="#FCD043"/>
<path d="M64.6717 84.9167C63.8114 86.03 62.1691 86.1349 61.1742 85.14C60.2457 84.2115 60.3435 82.6786 61.3826 81.8757L75.3789 71.0604L64.6717 84.9167Z" fill="#FCD043"/>
<path d="M61.5237 60.3516C60.4104 59.4913 60.3056 57.849 61.3004 56.8541C62.229 55.9256 63.7618 56.0234 64.5648 57.0625L75.38 71.0588L61.5237 60.3516Z" fill="#FCD043"/>
</svg>
