<svg width="200" height="200" viewBox="0 0 200 200" fill="none" xmlns="http://www.w3.org/2000/svg">
<path opacity="0.32" d="M41.5305 19.5236L100 0.525732L158.47 19.5236L194.606 69.2608V130.739L158.469 180.476L100 199.474L41.5305 180.476L5.39435 130.739V69.2608L41.5305 19.5236Z" stroke="#FFFCF6"/>
<path d="M112 137C112 137 108.5 138 105.5 141C102.5 144 100 149 100 149C100 149 97.5 144 94.5 141C91.5 138 88 137 88 137" stroke="#FCD043" stroke-width="2"/>
<path d="M72.304 53.124H75.062C76.056 53.124 77.022 53.39 77.022 54.636C77.022 55.35 76.658 56.61 74.558 56.61H71.562L72.304 53.124ZM69.098 62H70.428L71.324 57.73H74.278C74.852 57.73 76.196 57.478 75.776 59.858C75.58 60.88 75.622 61.636 75.748 62H77.134C76.728 61.202 77.064 60.348 77.12 59.438C77.218 58.43 76.966 57.534 76.098 57.268V57.24C77.428 57.044 78.352 55.882 78.352 54.552C78.352 52.578 76.756 52.004 75.062 52.004H71.212L69.098 62ZM80.012 59.13C80.012 57.632 80.964 55.644 82.784 55.644C84.086 55.644 84.688 56.554 84.688 57.688C84.688 59.116 83.736 61.118 82 61.118C80.698 61.118 80.012 60.32 80.012 59.13ZM78.822 59.144C78.822 60.894 79.97 62.168 81.874 62.168C84.408 62.168 85.878 59.956 85.878 57.59C85.878 55.658 84.8 54.594 82.868 54.594C80.334 54.594 78.822 56.778 78.822 59.144ZM88.051 59.13C88.051 57.632 89.003 55.644 90.823 55.644C92.125 55.644 92.727 56.554 92.727 57.688C92.727 59.116 91.775 61.118 90.039 61.118C88.737 61.118 88.051 60.32 88.051 59.13ZM86.861 59.144C86.861 60.894 88.009 62.168 89.913 62.168C92.447 62.168 93.917 59.956 93.917 57.59C93.917 55.658 92.839 54.594 90.907 54.594C88.373 54.594 86.861 56.778 86.861 59.144ZM94.5921 62H95.7821L96.5941 58.206C96.7481 57.492 96.8601 57.058 97.3641 56.568C97.7841 56.092 98.4841 55.644 99.1421 55.644C99.7861 55.644 100.15 55.994 100.15 56.596C100.15 56.764 100.052 57.31 99.9261 57.87L99.0581 62H100.248L101.046 58.262C101.172 57.646 101.326 57.058 101.718 56.638C102.124 56.12 102.866 55.644 103.538 55.644C104.168 55.644 104.644 56.064 104.644 56.624C104.644 56.834 104.588 57.184 104.532 57.408L103.524 62H104.714L105.624 57.66C105.722 57.254 105.834 56.638 105.834 56.218C105.834 55.042 104.84 54.594 103.818 54.594C102.852 54.594 101.9 55.126 101.34 55.896C101.13 54.958 100.43 54.594 99.5201 54.594C98.5261 54.594 97.6161 55.112 97.0001 55.868L96.9721 55.84L97.2381 54.762H96.1321L94.5921 62ZM112.744 56.89C112.744 55.196 111.358 54.594 110.014 54.594C108.67 54.594 107.326 55.336 107.326 56.68C107.326 57.772 108.278 58.262 109.244 58.64C110.196 59.032 111.148 59.312 111.148 60.012C111.148 60.838 110.266 61.118 109.496 61.118C108.502 61.118 107.592 60.796 107.648 59.718H106.458C106.444 61.566 107.732 62.168 109.384 62.168C110.784 62.168 112.338 61.538 112.338 59.928C112.338 58.794 111.372 58.29 110.42 57.898C109.468 57.506 108.516 57.24 108.516 56.568C108.516 55.84 109.328 55.644 110.056 55.644C110.882 55.644 111.61 56.064 111.554 56.89H112.744Z" fill="#FCD043"/>
<path d="M95.376 76.48C95.376 77.138 94.732 78.118 93.164 78.118C92.436 78.118 91.764 77.838 91.764 77.054C91.764 76.172 92.436 75.892 93.22 75.752C94.018 75.612 94.914 75.598 95.376 75.262V76.48ZM97.308 78.048C97.154 78.104 97.042 78.118 96.944 78.118C96.566 78.118 96.566 77.866 96.566 77.306V73.582C96.566 71.888 95.152 71.594 93.85 71.594C92.24 71.594 90.854 72.224 90.784 74.016H91.974C92.03 72.952 92.772 72.644 93.78 72.644C94.536 72.644 95.39 72.812 95.39 73.848C95.39 74.744 94.27 74.66 92.954 74.912C91.722 75.15 90.504 75.5 90.504 77.138C90.504 78.58 91.582 79.168 92.898 79.168C93.906 79.168 94.788 78.818 95.446 78.048C95.446 78.832 95.838 79.168 96.454 79.168C96.832 79.168 97.098 79.098 97.308 78.972V78.048ZM98.4155 79H99.6055V74.912C99.6055 73.61 100.306 72.644 101.748 72.644C102.658 72.644 103.218 73.218 103.218 74.1V79H104.408V74.24C104.408 72.686 103.82 71.594 101.916 71.594C100.88 71.594 100.068 72.014 99.5635 72.91H99.5355V71.762H98.4155V79ZM112.663 69.004H111.473V72.728H111.445C110.913 71.874 109.849 71.594 109.107 71.594C106.895 71.594 105.803 73.316 105.803 75.36C105.803 77.404 106.909 79.168 109.135 79.168C110.129 79.168 111.053 78.818 111.445 78.02H111.473V79H112.663V69.004ZM107.063 75.444C107.063 74.03 107.609 72.644 109.233 72.644C110.871 72.644 111.515 73.96 111.515 75.388C111.515 76.746 110.899 78.118 109.303 78.118C107.763 78.118 107.063 76.802 107.063 75.444Z" fill="#FFFCF6"/>
<path d="M74.376 93.48C74.376 94.138 73.732 95.118 72.164 95.118C71.436 95.118 70.764 94.838 70.764 94.054C70.764 93.172 71.436 92.892 72.22 92.752C73.018 92.612 73.914 92.598 74.376 92.262V93.48ZM76.308 95.048C76.154 95.104 76.042 95.118 75.944 95.118C75.566 95.118 75.566 94.866 75.566 94.306V90.582C75.566 88.888 74.152 88.594 72.85 88.594C71.24 88.594 69.854 89.224 69.784 91.016H70.974C71.03 89.952 71.772 89.644 72.78 89.644C73.536 89.644 74.39 89.812 74.39 90.848C74.39 91.744 73.27 91.66 71.954 91.912C70.722 92.15 69.504 92.5 69.504 94.138C69.504 95.58 70.582 96.168 71.898 96.168C72.906 96.168 73.788 95.818 74.446 95.048C74.446 95.832 74.838 96.168 75.454 96.168C75.832 96.168 76.098 96.098 76.308 95.972V95.048ZM83.0575 92.318C83.0575 93.732 82.5115 95.118 80.8875 95.118C79.2495 95.118 78.6055 93.802 78.6055 92.374C78.6055 91.016 79.2215 89.644 80.8175 89.644C82.3575 89.644 83.0575 90.96 83.0575 92.318ZM77.4575 98.772H78.6475V95.034H78.6755C79.2075 95.888 80.2715 96.168 81.0135 96.168C83.2255 96.168 84.3175 94.446 84.3175 92.402C84.3175 90.358 83.2115 88.594 80.9855 88.594C79.9915 88.594 79.0675 88.944 78.6755 89.742H78.6475V88.762H77.4575V98.772ZM90.1944 93.48C90.1944 94.138 89.5504 95.118 87.9824 95.118C87.2544 95.118 86.5824 94.838 86.5824 94.054C86.5824 93.172 87.2544 92.892 88.0384 92.752C88.8364 92.612 89.7324 92.598 90.1944 92.262V93.48ZM92.1264 95.048C91.9724 95.104 91.8604 95.118 91.7624 95.118C91.3844 95.118 91.3844 94.866 91.3844 94.306V90.582C91.3844 88.888 89.9704 88.594 88.6684 88.594C87.0584 88.594 85.6724 89.224 85.6024 91.016H86.7924C86.8484 89.952 87.5904 89.644 88.5984 89.644C89.3544 89.644 90.2084 89.812 90.2084 90.848C90.2084 91.744 89.0884 91.66 87.7724 91.912C86.5404 92.15 85.3224 92.5 85.3224 94.138C85.3224 95.58 86.4004 96.168 87.7164 96.168C88.7244 96.168 89.6064 95.818 90.2644 95.048C90.2644 95.832 90.6564 96.168 91.2724 96.168C91.6504 96.168 91.9164 96.098 92.1264 95.972V95.048ZM93.1919 96H94.3819V92.78C94.3819 90.946 95.0819 89.854 96.9999 89.854V88.594C95.7119 88.552 94.9139 89.126 94.3399 90.288H94.3119V88.762H93.1919V96ZM99.548 86.592H98.358V88.762H97.126V89.812H98.358V94.418C98.358 95.748 98.848 96 100.08 96H100.99V94.95H100.444C99.702 94.95 99.548 94.852 99.548 94.306V89.812H100.99V88.762H99.548V86.592ZM102.312 96H103.502V91.492C103.502 90.946 104.02 89.644 105.434 89.644C106.498 89.644 106.792 90.316 106.792 91.254V96H107.982V91.492C107.982 90.372 108.724 89.644 109.872 89.644C111.034 89.644 111.272 90.358 111.272 91.254V96H112.462V90.694C112.462 89.196 111.496 88.594 110.054 88.594C109.13 88.594 108.276 89.056 107.786 89.826C107.492 88.944 106.68 88.594 105.798 88.594C104.804 88.594 103.992 89.014 103.46 89.826H103.432V88.762H102.312V96ZM119.246 93.704C119.036 94.642 118.35 95.118 117.37 95.118C115.788 95.118 115.074 93.998 115.116 92.738H120.534C120.604 90.988 119.82 88.594 117.258 88.594C115.284 88.594 113.856 90.19 113.856 92.36C113.926 94.572 115.018 96.168 117.328 96.168C118.952 96.168 120.1 95.3 120.422 93.704H119.246ZM115.116 91.688C115.2 90.582 115.942 89.644 117.188 89.644C118.364 89.644 119.218 90.554 119.274 91.688H115.116ZM121.767 96H122.957V91.912C122.957 90.61 123.657 89.644 125.099 89.644C126.009 89.644 126.569 90.218 126.569 91.1V96H127.759V91.24C127.759 89.686 127.171 88.594 125.267 88.594C124.231 88.594 123.419 89.014 122.915 89.91H122.887V88.762H121.767V96ZM131.198 86.592H130.008V88.762H128.776V89.812H130.008V94.418C130.008 95.748 130.498 96 131.73 96H132.64V94.95H132.094C131.352 94.95 131.198 94.852 131.198 94.306V89.812H132.64V88.762H131.198V86.592ZM133.5 93.718C133.57 95.51 134.942 96.168 136.566 96.168C138.036 96.168 139.646 95.608 139.646 93.886C139.646 92.486 138.47 92.094 137.28 91.828C136.174 91.562 134.914 91.422 134.914 90.568C134.914 89.84 135.74 89.644 136.454 89.644C137.238 89.644 138.05 89.938 138.134 90.862H139.324C139.226 89.098 137.952 88.594 136.356 88.594C135.096 88.594 133.654 89.196 133.654 90.652C133.654 92.038 134.844 92.43 136.02 92.696C137.21 92.962 138.386 93.116 138.386 94.04C138.386 94.95 137.378 95.118 136.636 95.118C135.656 95.118 134.732 94.782 134.69 93.718H133.5Z" fill="#FFFCF6"/>
</svg>
